# Blender v2.60 (sub 0) OBJ File: 'machine4.blend'
# www.blender.org
mtllib machine4.mtl
o Mesh.001_Box001
v -0.716563 -1.520561 -1.210319
v -0.716563 -1.520561 1.286867
v -3.660106 -1.520561 1.278076
v -3.660106 -1.520561 -1.210320
v 9.519203 -0.818146 -0.698252
v 3.038161 -0.852458 -0.715433
v 9.519203 -0.561987 -0.511571
v 3.038161 -0.138789 -0.492682
v 11.782837 -0.693256 -0.608880
v 9.939335 -0.814027 -2.237517
v 10.096728 -0.674819 -2.475943
v 12.270187 -1.040897 -0.539754
v 9.939086 -0.508685 -2.303027
v 12.943566 -1.313886 -0.213915
v 12.307714 -0.521445 0.016371
v 12.911214 -1.124542 0.016371
v 9.519203 -0.391633 0.016371
v 3.038161 0.026240 0.016371
v 3.038161 -1.520561 -0.378895
v 2.206736 -1.520561 -1.210319
v 9.519203 -1.520561 -0.378895
v 12.957031 -1.531915 -0.037885
v 12.944118 -1.311826 0.253641
v 12.957379 -1.531764 0.079469
v 3.038162 -1.520561 -2.041744
v 3.038162 -1.480724 -2.001855
v 3.038162 -0.689137 -1.210319
v 2.206736 -1.520561 1.272299
v 3.038161 -1.520561 0.440874
v 3.038161 -0.855422 0.773444
v 1.961529 0.748298 -2.093990
v 1.963388 0.836564 -2.029185
v 3.038162 -0.742991 -1.264173
v -3.093882 0.691228 -2.276100
v -3.093882 -0.883103 -3.369260
v -3.202797 -0.137734 -3.880875
v -3.202797 0.796324 -3.232314
v 0.393277 -1.045720 -3.392268
v 0.275321 -0.170137 -3.993004
v 0.275018 0.903882 -3.247284
v 0.393930 0.780751 -2.124032
v 0.273109 -0.190433 -4.063487
v 0.388957 -1.147249 -3.406686
v -0.624478 -1.147249 -3.406686
v -0.740374 -0.190433 -4.063487
v 0.388957 0.836564 -2.029185
v 0.273109 0.971451 -3.256679
v -0.740374 0.971451 -3.256679
v -0.619202 0.836564 -2.029185
v 1.964191 -1.050744 -3.338012
v 1.963388 -1.147249 -3.406686
v 2.061552 0.864848 -0.840273
v 2.061552 0.864848 0.016371
v 0.038251 0.864848 -1.260155
v -0.613978 1.752940 -0.840273
v -0.613978 1.752940 0.016371
v -0.613978 0.864848 -1.260155
v -3.419068 -1.147249 -3.406687
v -3.419068 -0.190433 -4.063487
v -3.419068 0.971451 -3.256679
v -3.419068 0.836564 -2.029185
v -3.419068 1.752940 -0.840273
v -3.419068 1.752940 0.022148
v -1.275600 0.864848 -1.260155
v 9.519203 -0.818146 0.730995
v 9.519203 -0.561987 0.544263
v 3.038161 -0.138789 0.525424
v 11.782837 -0.693256 0.641623
v 10.096728 -0.674819 2.508685
v 9.939335 -0.814027 2.270260
v 12.270187 -1.040897 0.572446
v 9.939085 -0.508685 2.335769
v 9.519203 -1.520561 0.411637
v 3.038161 -0.689137 1.243061
v 3.038161 -0.742991 1.296915
v 1.967930 0.748336 2.115937
v 1.963388 0.836564 2.061926
v 0.393277 -1.045720 3.425009
v -3.093883 -0.883103 3.402001
v -3.202797 -0.137734 3.913616
v 0.275321 -0.170137 4.025745
v -3.202797 0.796324 3.265055
v 0.275018 0.903882 3.280026
v -3.093883 0.691228 2.308841
v 0.400331 0.780789 2.145978
v 0.393930 0.780751 2.156773
v 0.273109 -0.190433 4.096178
v -0.740374 -0.190433 4.096178
v -0.624478 -1.147249 3.439427
v 0.388957 -1.147249 3.439428
v 0.388957 0.836564 2.061926
v -0.619202 0.836564 2.061926
v -0.740374 0.971451 3.289420
v 0.273109 0.971451 3.289420
v 1.963388 -1.147249 3.439428
v 1.970592 -1.050706 3.359959
v 2.061552 0.864848 0.873014
v 0.038251 0.864848 1.292896
v -0.613978 1.752940 0.873014
v -0.613978 0.864848 1.292896
v -3.419068 -0.190433 4.101954
v -3.419068 -1.147249 3.445154
v -3.419068 0.836564 2.065794
v -3.419068 0.971451 3.295197
v -3.419068 1.752940 0.878741
v -1.275600 0.864848 1.292896
v 3.038161 -1.480724 2.034597
v 3.038161 -1.520561 2.074485
v 0.458936 -1.520561 1.281140
v 0.458936 -1.520561 -1.210319
v -5.377412 -0.731487 -2.178138
v -5.448998 -0.714356 -2.127549
v -5.448998 -0.322959 -2.366678
v -5.448998 0.840182 -2.080276
v -5.077295 -1.095204 -1.363744
v -5.148531 -1.085407 -1.368366
v -5.448998 0.835861 -2.040739
v -5.099399 1.752940 -0.840273
v -5.448999 -0.322959 2.410823
v -5.448999 -0.707675 2.184755
v -5.377412 -0.724303 2.232430
v -5.448999 0.840182 2.124371
v -5.148531 -1.085407 1.413566
v -5.077295 -1.096912 1.408441
v -5.099399 1.752940 0.884317
v -5.448999 0.835861 2.084733
v -4.327255 1.661709 -0.871922
v -4.324141 0.798083 -2.002760
v -4.324742 0.668320 -0.609182
v -4.321024 -0.296785 -2.262285
v -4.322582 -0.513307 -0.609182
v -4.324141 0.798083 2.047056
v -4.327255 1.661709 0.916218
v -4.324643 0.668371 0.652724
v -4.322684 -0.513307 0.652724
v -4.321024 -0.296735 2.306581
v -4.321024 -0.993624 1.419795
v -4.321024 -0.642065 2.102467
v -4.321024 -0.648596 -2.045512
v -4.321024 -0.993624 -1.375499
v -5.448998 -0.321351 -2.306795
v -5.448998 -0.690996 -2.079071
v -5.148531 -1.012614 -1.375148
v -5.448999 -0.545459 -0.620837
v -5.448999 0.697257 -0.620636
v -5.099399 1.736462 -0.809478
v -5.448998 0.828878 -2.034108
v -5.448999 -0.684113 2.136578
v -5.448999 -0.321351 2.351041
v -5.448999 0.828878 2.078403
v -5.099399 1.736462 0.845936
v -5.448999 0.701175 0.654231
v -5.448999 -0.543902 0.661264
v -5.148531 -1.012614 1.419443
v -5.099399 1.721592 0.806650
v -5.448999 0.698011 0.604698
v -5.448999 0.698011 -0.561256
v -5.099399 1.721592 -0.762406
v -5.448999 -0.538576 0.604698
v -5.448999 -0.538576 -0.561256
v -5.022135 1.713353 -0.762406
v -5.022135 1.713353 0.806650
v -5.371736 0.695046 -0.562060
v -5.378115 0.696554 0.605301
v -5.378115 -0.537371 -0.561658
v -5.378115 -0.520491 0.605301
v -5.384495 0.698011 -0.561256
v -3.436700 1.454079 -0.866346
v -3.436701 1.454079 0.861510
v -1.323778 0.603113 1.257780
v -1.323778 0.603113 -1.212128
v 0.062917 0.543632 1.267777
v 0.062917 0.543632 -1.272614
v 2.054518 0.605323 0.774800
v 2.054518 0.605323 -0.779637
vt 0.598700 0.224000
vt 0.586900 0.164700
vt 0.620400 0.095500
vt 0.560600 0.040100
vt 0.508600 0.166500
vt 0.514000 0.064200
vt 0.600900 0.734000
vt 0.556300 1.000000
vt 0.666700 0.958600
vt 0.556300 0.145000
vt 0.601700 0.220600
vt 0.523200 0.021600
vt 0.461400 0.040700
vt 0.760500 1.045800
vt 0.333300 0.958600
vt 0.443700 1.000000
vt 0.399900 0.736400
vt 0.761500 1.042800
vt 0.776200 1.002200
vt 1.000000 1.000000
vt 0.777000 1.000000
vt 0.994300 0.994300
vt 0.994000 0.994000
vt 0.666700 0.666700
vt 0.666700 0.812900
vt 0.333300 0.813400
vt 0.333300 0.666700
vt 0.333300 0.870300
vt 0.666700 0.873000
vt 0.571200 0.614300
vt 0.513200 0.613200
vt 0.508400 0.253700
vt 0.573900 0.252800
vt 0.506500 0.021500
vt 0.586800 0.237900
vt 0.574500 0.252100
vt 0.063800 1.000000
vt 0.031500 1.000000
vt 0.000000 1.000000
vt 0.993800 0.993800
vt 0.861200 0.861200
vt 0.866500 0.866500
vt 0.756200 0.756200
vt 0.749800 0.749800
vt 0.000000 0.250000
vt 1.000000 0.250000
vt 1.000000 0.500000
vt 0.000000 0.500000
vt 0.000000 0.750000
vt 1.000000 0.750000
vn 0.046370 -0.131886 -0.990180
vn 0.530028 0.630218 -0.567358
vn 0.525581 0.597668 -0.605439
vn 0.636694 0.637119 -0.434397
vn 0.666113 -0.335536 -0.666114
vn 0.018932 -0.413812 -0.910165
vn 0.124582 -0.618624 -0.775747
vn 0.071813 -0.662047 -0.746014
vn 0.985323 0.170688 -0.001916
vn 0.688605 -0.688607 -0.227252
vn 0.666666 -0.333334 0.666667
vn 0.758202 0.461032 -0.461063
vn 0.818171 0.327839 -0.472353
vn 0.046377 -0.132017 0.990162
vn 0.525047 0.620045 0.582983
vn 0.522409 0.601941 0.603950
vn 0.642113 0.642541 0.418129
vn 0.123901 -0.611436 0.781533
vn 0.070460 -0.656028 0.751440
vn 0.018949 -0.413812 0.910165
vn 0.690416 -0.681926 0.241461
vn 0.818218 0.327801 0.472299
vn 0.758160 0.461066 0.461098
vn -0.146577 -0.977464 0.151920
vn -0.149553 -0.977378 -0.149553
vn 0.563562 -0.584102 -0.584143
vn 0.577338 -0.577337 0.577376
vn -0.537473 -0.477244 -0.695241
vn -0.594516 -0.357641 -0.720169
vn -0.561894 -0.431272 -0.705890
vn -0.586347 0.462033 -0.665374
vn -0.500540 0.206984 -0.840605
vn 0.204180 0.775350 -0.597615
vn -0.565236 -0.417932 0.711226
vn -0.569840 -0.407875 0.713387
vn -0.534715 -0.478235 0.696686
vn -0.498804 0.207257 0.841569
vn -0.585130 0.462515 0.666110
vn 0.205422 0.774691 0.598043
vn -0.321108 -0.926676 0.195350
vn -0.243358 -0.913985 0.324668
vn -0.317960 -0.928319 -0.192679
vn -0.240282 -0.916216 -0.320644
vn -0.000000 1.000000 0.000000
vn 0.000000 -1.000000 -0.000000
vn 0.000000 -0.985861 -0.167565
vn -0.000091 -0.985388 0.170325
vn 0.000453 -0.985422 0.170130
vn 0.003876 0.792835 0.609424
vn 0.001746 0.793226 -0.608925
vn 0.000000 0.570369 -0.821388
vn 0.000000 -0.565937 -0.824448
vn -0.286941 -0.957948 -0.000311
vn 0.001771 0.570344 0.821404
vn 0.001733 -0.565850 0.824506
vn 0.061175 0.949693 -0.307148
vn 0.061176 0.949689 0.307162
vn 0.011546 0.388906 -0.921205
vn 0.006230 -0.430308 0.902661
vn 0.002338 -0.431685 -0.902021
vn 0.013810 0.407980 0.912886
vn 0.043383 0.952227 0.302295
vn 0.043387 0.952230 -0.302284
vn -0.003281 -0.999995 0.000167
vn 0.998142 0.060901 -0.001766
vn 0.021166 -0.570206 0.821229
vn 0.031603 0.570895 0.820414
vn 0.028866 0.569334 -0.821599
vn 0.315030 0.949082 -0.000000
vn 0.140470 0.423189 -0.895086
vn 0.000000 0.427427 -0.904050
vn 0.140470 0.423189 0.895086
vn 0.001847 0.426301 0.904579
vn 0.000000 0.427427 0.904050
vn 0.328230 -0.893918 -0.305246
vn 0.435276 0.813799 -0.385053
vn -0.791345 -0.128865 -0.597634
vn -0.972066 -0.049992 -0.229321
vn -0.947614 0.188126 -0.258141
vn 0.059709 0.997260 0.043666
vn 0.054603 -0.998433 0.012231
vn 0.328231 -0.893918 0.305246
vn 0.435275 0.813800 0.385052
vn -0.791344 -0.128866 0.597636
vn -0.947605 0.188175 0.258139
vn -0.972068 -0.049993 0.229315
vn 0.059710 0.997260 -0.043665
vn 0.054603 -0.998433 -0.012231
vn 0.276069 0.693379 0.665591
vn 0.742743 0.635846 0.209841
vn 0.000000 0.999324 -0.036753
vn 0.734962 0.639220 -0.226339
vn 0.278078 0.687495 -0.670837
vn -0.000000 0.999324 0.036753
vn -0.000000 0.999331 0.036570
vn 0.000051 0.999324 0.036754
vn -0.001329 0.994081 0.108632
vn -0.000966 0.994016 0.109230
vn -0.001355 0.994111 -0.108358
vn -0.001376 0.994034 -0.109063
vn -0.000192 0.994025 -0.109156
vn -0.000000 0.994016 0.109230
vn -0.999993 0.002604 -0.002753
vn -0.883415 -0.468587 0.001805
vn -0.944822 0.327575 -0.002383
vn 0.651469 0.758675 0.000000
vn 0.736052 0.643932 -0.208755
vn 0.542590 0.250274 -0.801847
vn 0.202994 0.044332 -0.978176
vn 0.736052 0.643932 0.208755
vn 0.202845 0.058581 0.977457
vn 0.558019 0.271402 0.784191
vn 0.000446 -0.985331 0.170654
vn -0.000000 -0.565908 0.824469
vn 0.000000 0.570345 0.821405
vn 0.000000 0.994016 -0.109230
vn 0.577106 -0.577838 0.577107
vn 0.563576 -0.584118 -0.584114
vn 0.563330 -0.584606 -0.583863
vn 0.577349 -0.577350 0.577352
vn -1.000000 -0.000000 -0.000000
vn -0.911023 -0.371476 0.179003
vn -0.912686 0.037910 0.406898
vn -0.969163 0.217274 0.116256
vn -0.974328 0.155032 0.163249
vn -0.926231 0.030337 -0.375734
vn -0.897123 -0.396864 -0.194087
vn -0.974075 0.151937 -0.167607
vn -0.966680 0.235227 -0.100988
vn -0.930177 0.343339 -0.129958
vn -0.946071 0.323299 -0.020657
vn -0.946564 0.322491 -0.004093
vn -0.936549 0.334254 0.105593
vn -0.841818 -0.537386 -0.050589
vn -0.935190 -0.028502 0.352998
vn -0.943360 -0.030777 -0.330339
vn -0.782424 -0.618632 0.071461
vn 0.989627 0.114911 0.086218
vn 0.999010 0.025467 0.036483
vn 0.772600 0.394527 0.497430
vn 0.829024 0.354709 0.432321
vn 0.016414 0.719064 0.694750
vn 0.990832 0.037318 0.129846
vn 0.019332 0.427322 0.903893
vn 0.014072 0.742451 -0.669753
vn 0.999011 0.025456 -0.036466
vn 0.016524 0.386489 -0.922146
vn 0.990836 0.037343 -0.129805
vn 0.989627 0.114911 -0.086218
vn 0.828266 0.352698 -0.435408
vn 0.773138 0.392275 -0.498376
vn -0.224349 0.965849 -0.129627
vn -0.999996 -0.002710 -0.000684
vn -0.999996 -0.002794 0.000620
vn -0.999998 -0.001532 0.001204
vn -0.999998 -0.001439 -0.001131
vn -0.033383 -0.230578 0.972481
vn 0.004467 0.002902 0.999986
vn -0.033356 -0.230563 -0.972486
vn 0.010267 0.000092 -0.999947
vn -0.019091 0.846869 -0.531459
vn -0.044974 0.508357 -0.859971
vn -0.019275 0.847186 0.530947
vn -0.044988 0.524016 0.850520
vn -0.032010 -0.797538 -0.602419
vn -0.034409 -0.796338 0.603873
vn -0.037779 -0.210575 -0.976847
vn -0.047371 -0.210977 0.976342
vn -0.999997 -0.002208 -0.000960
vn -0.999997 -0.002121 0.000950
vn 0.991803 0.072879 0.104959
vn 0.991803 0.072879 -0.104959
vn 0.022412 0.571927 0.819998
vn 0.030455 -0.993259 0.111845
vn 0.031868 0.568561 -0.822024
vn 0.021166 -0.570206 -0.821229
vn 0.031868 0.568561 0.822024
vn 0.030312 -0.993209 -0.112328
vn 0.021171 0.570221 -0.821219
vn -0.035609 0.895873 -0.442880
vn -0.035645 0.896031 0.442558
vn -0.098703 -0.908901 -0.405162
vn -0.389948 -0.885721 -0.251870
vn -0.118102 -0.909179 0.399307
vn -0.380673 -0.886721 0.262326
vn -0.106031 -0.994363 0.000000
vn 0.019486 -0.816883 -0.576474
vn 0.018649 0.186749 0.982231
vn 0.002970 -0.000155 0.999996
vn 0.016328 0.188446 -0.981948
vn -0.066676 -0.834054 0.547639
vn 0.008503 0.000000 -0.999964
vn 0.998264 -0.058897 0.000000
vn 0.373584 0.927596 0.000000
vn 0.183712 0.016922 0.982834
vn 0.023671 0.059932 0.997922
vn -0.030961 0.999521 -0.000000
vn -0.220265 0.196234 -0.955498
vn -0.999633 0.027090 -0.000000
vn 0.042855 0.999081 0.000000
vn -0.222183 0.073906 0.972200
vn 0.212619 0.066074 -0.974899
vn 0.005941 0.102542 -0.994711
usemtl Material__8
s off
f 5/1/1 9/2/1 12/3/1
f 14/4/2 12/3/2 9/2/2
f 14/4/3 9/2/3 15/5/3
f 16/6/4 14/4/4 15/5/4
f 6/7/5 19/8/5 20/9/5
f 21/10/6 5/11/6 12/3/6
f 12/3/7 14/4/7 22/12/7
f 21/10/8 12/3/8 22/12/8
f 14/4/9 16/6/9 23/13/9
f 20/9/10 27/14/10 6/7/10
f 28/15/11 29/16/11 30/17/11
f 33/18/12 26/19/12 50/20/12
f 50/20/13 31/20/13 33/18/13
f 71/3/14 68/2/14 65/1/14
f 68/2/15 71/3/15 23/4/15
f 15/5/16 68/2/16 23/4/16
f 16/6/17 15/5/17 23/4/17
f 24/12/18 23/4/18 71/3/18
f 73/10/19 24/12/19 71/3/19
f 73/10/20 71/3/20 65/11/20
f 28/9/21 30/7/21 74/14/21
f 75/18/22 76/20/22 96/20/22
f 96/20/23 107/19/23 75/18/23
f 28/9/24 108/21/24 95/20/24
f 20/9/25 51/20/25 25/21/25
f 75/18/26 107/19/26 28/9/26
f 26/19/27 33/18/27 20/9/27
f 59/20/28 58/20/28 111/22/28
f 59/20/29 111/22/29 112/23/29
f 59/20/30 112/23/30 113/20/30
f 60/20/31 59/20/31 113/20/31
f 113/20/32 114/20/32 60/20/32
f 62/20/33 64/20/33 61/20/33
f 101/20/34 119/20/34 120/20/34
f 101/20/35 120/20/35 121/20/35
f 101/20/36 121/20/36 102/20/36
f 104/20/37 122/20/37 119/20/37
f 119/20/38 101/20/38 104/20/38
f 106/20/39 105/20/39 103/20/39
f 3/24/40 102/20/40 121/20/40
f 121/20/41 124/24/41 3/24/41
f 111/22/42 58/20/42 4/24/42
f 4/24/43 115/24/43 111/22/43
f 105/20/44 62/20/44 118/20/44
f 105/20/44 118/20/44 125/20/44
f 4/24/45 1/25/45 2/26/45
f 4/24/45 2/26/45 3/27/45
f 44/20/46 1/25/46 4/24/46
f 44/20/46 4/24/46 58/20/46
f 89/20/47 102/20/47 3/27/47
f 89/20/47 3/27/47 2/26/47
f 90/20/48 109/28/48 28/9/48
f 90/20/48 28/9/48 95/20/48
f 20/9/46 110/29/46 43/20/46
f 20/9/46 43/20/46 51/20/46
f 28/15/45 109/28/45 110/29/45
f 28/15/45 110/29/45 20/9/45
f 125/20/49 126/20/49 103/20/49
f 125/20/49 103/20/49 105/20/49
f 61/20/50 117/20/50 118/20/50
f 61/20/50 118/20/50 62/20/50
f 45/20/51 59/20/51 60/20/51
f 45/20/51 60/20/51 48/20/51
f 44/20/52 58/20/52 59/20/52
f 44/20/52 59/20/52 45/20/52
f 115/24/53 4/24/53 3/24/53
f 115/24/53 3/24/53 124/24/53
f 104/20/54 101/20/54 88/20/54
f 104/20/54 88/20/54 93/20/54
f 101/20/55 102/20/55 89/20/55
f 101/20/55 89/20/55 88/20/55
f 8/30/56 18/31/56 17/32/56
f 8/30/56 17/32/56 7/33/56
f 17/32/57 18/31/57 67/30/57
f 17/32/57 67/30/57 66/33/57
f 5/1/58 6/7/58 8/30/58
f 5/1/58 8/30/58 7/33/58
f 73/10/59 65/11/59 30/7/59
f 73/10/59 30/7/59 29/8/59
f 6/7/60 5/11/60 21/10/60
f 6/7/60 21/10/60 19/8/60
f 65/1/61 66/33/61 67/30/61
f 65/1/61 67/30/61 30/7/61
f 21/10/45 73/10/45 29/8/45
f 21/10/45 29/8/45 19/8/45
f 17/32/62 66/33/62 68/2/62
f 17/32/62 68/2/62 15/5/62
f 9/2/63 7/33/63 17/32/63
f 9/2/63 17/32/63 15/5/63
f 22/12/64 24/12/64 73/10/64
f 22/12/64 73/10/64 21/10/64
f 23/13/65 24/34/65 22/12/65
f 23/13/65 22/12/65 14/4/65
f 19/8/45 29/16/45 28/15/45
f 19/8/45 28/15/45 20/9/45
f 40/20/66 37/20/66 36/20/66
f 40/20/66 36/20/66 39/20/66
f 76/20/67 85/20/67 78/20/67
f 76/20/67 78/20/67 96/20/67
f 38/20/68 41/20/68 31/20/68
f 38/20/68 31/20/68 50/20/68
usemtl Material__4
f 53/20/69 52/20/69 55/20/69
f 55/20/69 56/20/69 53/20/69
f 52/20/44 54/20/44 57/20/44
f 57/20/70 55/20/70 52/20/70
f 56/20/44 55/20/44 62/20/44
f 62/20/44 63/20/44 56/20/44
f 55/20/71 57/20/71 64/20/71
f 64/20/71 62/20/71 55/20/71
f 53/20/69 56/20/69 99/20/69
f 99/20/69 97/20/69 53/20/69
f 97/20/72 99/20/72 100/20/72
f 100/20/44 98/20/44 97/20/44
f 56/20/44 63/20/44 105/20/44
f 105/20/44 99/20/44 56/20/44
f 99/20/73 105/20/73 106/20/73
f 106/20/74 100/20/74 99/20/74
usemtl Material__5
f 9/2/75 10/1/75 11/35/75
f 11/35/76 13/36/76 9/2/76
f 13/37/77 11/38/77 10/39/77
f 7/33/78 13/36/78 10/1/78
f 10/1/79 5/1/79 7/33/79
f 13/36/80 7/33/80 9/2/80
f 10/1/81 9/2/81 5/1/81
f 69/35/82 70/1/82 68/2/82
f 69/35/83 68/2/83 72/36/83
f 72/37/84 70/39/84 69/38/84
f 66/33/85 65/1/85 70/1/85
f 70/1/86 72/36/86 66/33/86
f 72/36/87 68/2/87 66/33/87
f 70/1/88 65/1/88 68/2/88
usemtl Material__6
f 32/20/89 54/20/89 6/7/89
f 6/7/90 27/14/90 32/20/90
f 54/20/91 32/20/91 49/20/91
f 49/20/91 57/20/91 54/20/91
f 57/20/91 49/20/91 61/20/91
f 61/20/91 64/20/91 57/20/91
f 77/20/92 74/14/92 30/7/92
f 30/7/93 98/20/93 77/20/93
f 98/20/94 100/20/94 92/20/94
f 92/20/94 77/20/94 98/20/94
f 100/20/95 106/20/95 103/20/95
f 103/20/96 92/20/96 100/20/96
f 60/20/97 114/20/97 117/20/97
f 117/20/98 61/20/98 60/20/98
f 103/20/99 126/20/99 122/20/99
f 122/20/100 104/20/100 103/20/100
f 103/20/101 104/20/101 93/20/101
f 103/20/101 93/20/101 92/20/101
f 48/20/102 60/20/102 61/20/102
f 48/20/102 61/20/102 49/20/102
f 163/20/103 165/20/103 166/20/103
f 163/20/103 166/20/103 164/20/103
f 165/20/104 115/20/104 124/20/104
f 165/20/104 124/20/104 166/20/104
f 161/20/105 163/20/105 164/20/105
f 161/20/105 164/20/105 162/20/105
usemtl Material__7
f 52/20/106 53/20/106 18/31/106
f 18/31/107 8/30/107 52/20/107
f 52/20/108 8/30/108 6/7/108
f 6/7/109 54/20/109 52/20/109
f 97/20/110 67/30/110 18/31/110
f 18/31/106 53/20/106 97/20/106
f 97/20/111 98/20/111 30/7/111
f 30/7/112 67/30/112 97/20/112
f 2/26/45 1/25/45 110/29/45
f 2/26/45 110/29/45 109/28/45
f 110/29/46 1/25/46 44/20/46
f 110/29/46 44/20/46 43/20/46
f 90/20/113 89/20/113 2/26/113
f 90/20/113 2/26/113 109/28/113
f 88/20/114 89/20/114 90/20/114
f 88/20/114 90/20/114 87/20/114
f 93/20/115 88/20/115 87/20/115
f 93/20/115 87/20/115 94/20/115
f 92/20/116 93/20/116 94/20/116
f 92/20/116 94/20/116 91/20/116
f 47/20/102 48/20/102 49/20/102
f 47/20/102 49/20/102 46/20/102
f 42/20/51 45/20/51 48/20/51
f 42/20/51 48/20/51 47/20/51
f 43/20/52 44/20/52 45/20/52
f 43/20/52 45/20/52 42/20/52
usemtl Material__10
f 20/9/117 25/21/117 26/19/117
f 28/9/118 74/14/118 75/18/118
f 107/19/119 108/21/119 28/9/119
f 20/9/120 33/18/120 27/14/120
f 114/20/121 147/20/121 117/20/121
f 122/20/121 126/20/121 150/20/121
f 141/20/121 113/20/121 112/23/121
f 112/23/121 142/40/121 141/20/121
f 147/20/121 114/20/121 113/20/121
f 113/20/121 141/20/121 147/20/121
f 142/40/122 112/23/122 116/24/122
f 116/24/123 143/24/123 142/40/123
f 146/20/124 118/20/124 117/20/124
f 117/20/125 147/20/125 146/20/125
f 148/20/121 120/20/121 119/20/121
f 119/20/121 149/20/121 148/20/121
f 149/20/121 119/20/121 122/20/121
f 122/20/121 150/20/121 149/20/121
f 154/24/126 123/24/126 120/20/126
f 120/20/127 148/20/127 154/24/127
f 150/20/128 126/20/128 125/20/128
f 125/20/129 151/20/129 150/20/129
f 151/20/130 155/20/130 156/41/130
f 156/41/131 152/41/131 151/20/131
f 145/42/132 157/42/132 158/20/132
f 158/20/133 146/20/133 145/42/133
f 152/41/121 156/41/121 159/43/121
f 159/43/121 153/43/121 152/41/121
f 144/44/121 160/44/121 157/42/121
f 157/42/121 145/42/121 144/44/121
f 153/43/134 159/43/134 123/24/134
f 123/24/135 154/24/135 153/43/135
f 143/24/136 116/24/136 160/44/136
f 160/44/137 144/44/137 143/24/137
f 86/20/138 91/20/138 94/20/138
f 86/20/138 94/20/138 83/20/138
f 83/20/139 94/20/139 87/20/139
f 83/20/139 87/20/139 81/20/139
f 107/19/140 96/20/140 95/20/140
f 107/19/140 95/20/140 108/21/140
f 75/18/141 74/14/141 77/20/141
f 75/18/141 77/20/141 76/20/141
f 91/20/142 86/20/142 76/20/142
f 91/20/142 76/20/142 77/20/142
f 81/20/143 87/20/143 90/20/143
f 81/20/143 90/20/143 78/20/143
f 95/20/144 96/20/144 78/20/144
f 95/20/144 78/20/144 90/20/144
f 31/20/145 41/20/145 46/20/145
f 31/20/145 46/20/145 32/20/145
f 42/20/146 47/20/146 40/20/146
f 42/20/146 40/20/146 39/20/146
f 38/20/147 50/20/147 51/20/147
f 38/20/147 51/20/147 43/20/147
f 43/20/148 42/20/148 39/20/148
f 43/20/148 39/20/148 38/20/148
f 47/20/149 46/20/149 41/20/149
f 47/20/149 41/20/149 40/20/149
f 32/20/150 27/14/150 33/18/150
f 32/20/150 33/18/150 31/20/150
f 51/20/151 50/20/151 26/19/151
f 51/20/151 26/19/151 25/21/151
usemtl Material__3
f 83/20/152 85/20/152 86/20/152
f 127/20/153 128/20/153 129/42/153
f 132/20/154 133/20/154 134/41/154
f 136/20/155 135/43/155 137/24/155
f 137/24/121 138/20/121 136/20/121
f 130/20/121 139/40/121 140/24/121
f 140/24/156 131/44/156 130/20/156
f 141/20/157 130/20/157 128/20/157
f 141/20/157 128/20/157 147/20/157
f 153/43/158 135/43/158 134/41/158
f 153/43/158 134/41/158 152/41/158
f 150/20/159 132/20/159 136/20/159
f 150/20/159 136/20/159 149/20/159
f 145/42/160 129/42/160 131/44/160
f 145/42/160 131/44/160 144/44/160
f 144/44/161 131/44/161 140/24/161
f 144/44/161 140/24/161 143/24/161
f 149/20/162 136/20/162 138/20/162
f 149/20/162 138/20/162 148/20/162
f 154/24/163 137/24/163 135/43/163
f 154/24/163 135/43/163 153/43/163
f 142/40/164 139/40/164 130/20/164
f 142/40/164 130/20/164 141/20/164
f 151/20/165 133/20/165 132/20/165
f 151/20/165 132/20/165 150/20/165
f 147/20/166 128/20/166 127/20/166
f 147/20/166 127/20/166 146/20/166
f 146/20/167 127/20/167 129/42/167
f 146/20/167 129/42/167 145/42/167
f 152/41/168 134/41/168 133/20/168
f 152/41/168 133/20/168 151/20/168
f 130/20/169 131/44/169 129/42/169
f 130/20/169 129/42/169 128/20/169
f 134/41/170 135/43/170 136/20/170
f 134/41/170 136/20/170 132/20/170
f 80/20/171 79/20/171 84/20/171
f 80/20/171 84/20/171 82/20/171
f 35/20/172 36/20/172 37/20/172
f 35/20/172 37/20/172 34/20/172
f 78/20/173 85/20/173 84/20/173
f 78/20/173 84/20/173 79/20/173
f 82/20/174 84/20/174 85/20/174
f 82/20/174 85/20/174 83/20/174
f 79/20/175 80/20/175 81/20/175
f 79/20/175 81/20/175 78/20/175
f 80/20/176 82/20/176 83/20/176
f 80/20/176 83/20/176 81/20/176
f 39/20/177 36/20/177 35/20/177
f 39/20/177 35/20/177 38/20/177
f 41/20/178 34/20/178 37/20/178
f 41/20/178 37/20/178 40/20/178
f 34/20/179 41/20/179 38/20/179
f 34/20/179 38/20/179 35/20/179
f 148/20/180 138/20/180 137/24/180
f 148/20/180 137/24/180 154/24/180
f 143/24/181 140/24/181 139/40/181
f 143/24/181 139/40/181 142/40/181
usemtl Material__2
f 115/24/182 116/24/182 112/23/182
f 112/23/183 111/22/183 115/24/183
f 120/20/184 123/24/184 124/24/184
f 124/24/185 121/20/185 120/20/185
f 158/20/186 161/20/186 162/20/186
f 158/20/186 162/20/186 155/20/186
f 158/20/121 155/20/121 151/20/121
f 158/20/121 151/20/121 146/20/121
f 146/20/121 151/20/121 125/20/121
f 146/20/121 125/20/121 118/20/121
f 159/43/187 166/43/187 124/24/187
f 159/43/187 124/24/187 123/24/187
f 157/42/188 163/42/188 161/20/188
f 157/42/188 161/20/188 158/20/188
f 160/44/189 165/44/189 167/42/189
f 160/44/189 167/42/189 157/42/189
f 155/20/190 162/20/190 164/41/190
f 155/20/190 164/41/190 156/41/190
f 116/24/191 115/24/191 165/44/191
f 116/24/191 165/44/191 160/44/191
f 156/41/192 164/41/192 166/43/192
f 156/41/192 166/43/192 159/43/192
usemtl wire_086086086
f 168/45/193 62/45/193 105/46/193
f 168/45/193 105/46/193 169/46/193
f 169/46/194 170/47/194 171/48/194
f 169/46/194 171/48/194 168/45/194
f 171/48/195 64/48/195 62/45/195
f 171/48/195 62/45/195 168/45/195
f 173/49/196 54/49/196 64/48/196
f 173/49/196 64/48/196 171/48/196
f 172/50/197 174/20/197 175/39/197
f 172/50/197 175/39/197 173/49/197
f 172/50/198 98/50/198 97/20/198
f 172/50/198 97/20/198 174/20/198
f 174/20/199 97/20/199 52/39/199
f 174/20/199 52/39/199 175/39/199
f 170/47/200 172/50/200 173/49/200
f 170/47/200 173/49/200 171/48/200
f 175/39/201 52/39/201 54/49/201
f 175/39/201 54/49/201 173/49/201
f 169/46/202 105/46/202 106/47/202
f 169/46/202 106/47/202 170/47/202
f 170/47/203 106/47/203 98/50/203
f 170/47/203 98/50/203 172/50/203
